<svg xmlns="http://www.w3.org/2000/svg" viewBox="0 0 96 120" role="img" aria-label="Giovanni trainer sprite">
  <defs>
    <linearGradient id="bg" x1="0" y1="0" x2="1" y2="1">
      <stop offset="0%" stop-color="#f5d0fe" />
      <stop offset="100%" stop-color="#a21caf" />
    </linearGradient>
    <linearGradient id="floor" x1="0" y1="0" x2="0" y2="1">
      <stop offset="0%" stop-color="rgba(255,255,255,0.22)" />
      <stop offset="100%" stop-color="rgba(15,23,42,0.18)" />
    </linearGradient>
  </defs>
  <rect width="96" height="120" rx="20" fill="url(#bg)" />
  <rect x="10" y="10" width="76" height="100" rx="16" fill="rgba(255,255,255,0.08)" />
  <ellipse cx="48" cy="101" rx="26" ry="8" fill="rgba(15,23,42,0.14)" />
  <path d="M28 43c3-9 10-13 20-13s17 4 20 13v17H28z" fill="#111827" opacity="0.96" />
  <circle cx="48" cy="45" r="14" fill="#f6d2b8" />
  <circle cx="42" cy="46" r="1.6" fill="#111827" />
  <circle cx="54" cy="46" r="1.6" fill="#111827" />
  <path d="M43 54c3 2 7 2 10 0" fill="none" stroke="#7c2d12" stroke-width="1.6" stroke-linecap="round" />
  
  <path d="M28 72c5-10 12-15 20-15s15 5 20 15l5 28H23z" fill="#111827" opacity="0.96" /><path d="M48 58l-6 12 6 10 6-10z" fill="#fef3c7" opacity="0.95" />
  <path d="M32 72c4-8 10-12 16-12s12 4 16 12" fill="none" stroke="#fef3c7" stroke-width="3" stroke-linecap="round" opacity="0.92" />
  <rect x="29" y="94" width="38" height="14" rx="7" fill="rgba(15,23,42,0.22)" />
  <text x="48" y="104" text-anchor="middle" font-family="Trebuchet MS, Segoe UI, sans-serif" font-size="11" font-weight="700" fill="white">G</text>
</svg>
